<svg xmlns="http://www.w3.org/2000/svg" xmlns:xlink="http://www.w3.org/1999/xlink" width="234.948" height="313.412" viewBox="0 0 234.948 313.412">
  <defs>
    <clipPath id="clip-path">
      <rect id="Rectangle_23" data-name="Rectangle 23" width="96.739" height="128.326" fill="none"/>
    </clipPath>
  </defs>
  <g id="Group_7703" data-name="Group 7703" transform="translate(-38.539 -30.588)">
    <g id="Vector_Smart_Object" data-name="Vector Smart Object" transform="translate(38.539 30.588)">
      <g id="Group_29" data-name="Group 29" transform="translate(0 0)">
        <g id="Group_28" data-name="Group 28" clip-path="url(#clip-path)">
          <path id="Path_127" data-name="Path 127" d="M144.172,25.413a.071.071,0,0,0-.072-.031c-1.807.213-3.932.448-3.932.448a9.961,9.961,0,0,0-7.845-.463,10.629,10.629,0,0,0-5.708,4.731l-.95-.319.673-5.559a9.819,9.819,0,0,0-4.435-9.215L98.332,0c-.5,1.134-3.5,15.292,9.9,21.9,6.66,3.275,8.173,4.006,8.457,4.3a1.2,1.2,0,0,1,.474.731s-12.41-4.119-15.792-5.288c-11.168-3.84-30.667-10.509-39.91-13.583,0,0,3.22,24.924,32.784,35.169,9.341,3.313,16.929,5.989,16.929,5.989A4.309,4.309,0,0,1,113.584,51a3.938,3.938,0,0,1,.068,3.637C109.3,62.882,94.164,91.549,93.344,93.1a16.6,16.6,0,0,0,6.236-4.347c2.04-2.341,3.61-4.273,7.255-8.5,4.456-5.179,9.238-10.725,9.238-10.725L117.3,81.654a10.628,10.628,0,0,0,2.845-6.267c.373-3.173,1.5-12.324,1.5-12.324s8.091-9.487,14.963-17.479c6.634-7.675,4.892-15.545,4.7-16.2,0,0,2.3-3.1,2.871-3.884a.079.079,0,0,0,0-.091m-7.527,5.176a1.652,1.652,0,1,1,.681-1.071,1.656,1.656,0,0,1-.681,1.071" transform="translate(-47.446)" fill="#fff"/>
          <path id="Path_128" data-name="Path 128" d="M4.026,244.784v9.206H5.832v-9.206H9.858V267.1H5.832v-9.48H4.026v9.48H0V244.784Z" transform="translate(0 -188.952)" fill="#fff"/>
          <path id="Path_129" data-name="Path 129" d="M49.523,254.151c0-7.672,2.084-10.6,5.689-10.6s5.689,2.93,5.689,10.6v1.671c0,7.672-2.084,10.6-5.689,10.6s-5.689-2.93-5.689-10.6Zm4.579,7.362c0,.919.445,1.42,1.111,1.42s1.111-.5,1.111-1.42V248.322c0-.919-.445-1.42-1.111-1.42s-1.111.5-1.111,1.42Z" transform="translate(-38.227 -188.003)" fill="#fff"/>
          <path id="Path_130" data-name="Path 130" d="M109.822,244.784c3.385,0,6.3,2.231,6.3,6.974v.561c0,4.743-2.916,6.974-6.248,6.974v7.81h-4.163V244.79h4.11Zm.059,11.151h.279c1.111,0,1.805-.644,1.805-2.231v-3.347c0-1.587-.695-2.231-1.805-2.231h-.279Z" transform="translate(-81.6 -188.952)" fill="#fff"/>
          <path id="Path_131" data-name="Path 131" d="M163.356,244.784v3.627h-3.332v5.578h2.917v3.627h-2.917v5.859h3.332V267.1h-7.495V244.79h7.495Z" transform="translate(-120.311 -188.952)" fill="#fff"/>
          <path id="Path_132" data-name="Path 132" d="M0,354.147H7.495v3.627H4.163v5.578H6.937v3.627H4.163v9.48H0Z" transform="translate(0 -273.371)" fill="#fff"/>
          <path id="Path_133" data-name="Path 133" d="M34.913,363.541c0-7.672,2.084-10.6,5.689-10.6s5.688,2.929,5.688,10.6v1.671c0,7.672-2.084,10.6-5.689,10.6s-5.689-2.929-5.689-10.6Zm4.579,7.362c0,.919.445,1.42,1.111,1.42s1.111-.5,1.111-1.42V357.712c0-.919-.445-1.42-1.111-1.42s-1.111.5-1.111,1.42Z" transform="translate(-26.949 -272.443)" fill="#fff"/>
          <path id="Path_134" data-name="Path 134" d="M94.734,354.147c3.5,0,6.165,2.452,6.165,6.777a7.346,7.346,0,0,1-2.358,5.859l2.085,9.4v.28H96.6l-1.58-8.48H94.6l.2,8.478H90.637V354.147Zm.053,10.882h.137c.974,0,1.805-.752,1.805-2.231v-3.067c0-1.48-.831-2.231-1.805-2.231h-.137Z" transform="translate(-69.964 -273.371)" fill="#fff"/>
          <path id="Path_135" data-name="Path 135" d="M7.495,463.518v17.707c0,2.786-1.247,4.744-4.163,4.744A20.067,20.067,0,0,1,0,485.688L.279,482.2H2.334c.808,0,1.14-.365,1.14-1.146V467.14H0v-3.627H7.495Z" transform="translate(0 -357.792)" fill="#fff"/>
          <path id="Path_136" data-name="Path 136" d="M49.073,463.536v16.735c0,3.627-1.942,5.859-5.137,5.859S38.8,483.9,38.8,480.271V463.536h4.162v17.821c0,.919.3,1.42.974,1.42s.974-.5.974-1.42V463.536Z" transform="translate(-29.95 -357.809)" fill="#fff"/>
          <path id="Path_137" data-name="Path 137" d="M92.219,477.228a3.312,3.312,0,0,1,.166,1.253v2.064c0,.865.386,1.42,1.026,1.42.665,0,1.057-.561,1.057-1.533,0-1.784-1.163-3.43-2.387-5.047l-.808-1.062c-1.889-2.482-2.667-4.128-2.667-6.581,0-3.2,1.918-5.435,5.054-5.435,3.2,0,4.941,2.231,4.941,5.775a5.535,5.535,0,0,0,.166,1.617v.281H95.022a3.748,3.748,0,0,1-.167-1.253v-1.867c0-.9-.416-1.337-1-1.337-.612,0-1.081.447-1.081,1.563,0,1.647.861,2.816,2.085,4.379l.831,1.062c1.918,2.428,2.946,4.349,2.946,7.082,0,3.4-1.918,5.578-4.941,5.578-3.385,0-5.107-2.2-5.107-6.109a5.041,5.041,0,0,0-.166-1.563v-.28h3.795Z" transform="translate(-68.256 -356.861)" fill="#fff"/>
          <path id="Path_138" data-name="Path 138" d="M145.5,463.536v3.627h-2.774v18.686h-4.163V467.163h-2.779v-3.627Z" transform="translate(-104.814 -357.809)" fill="#fff"/>
          <rect id="Rectangle_22" data-name="Rectangle 22" width="4.163" height="22.313" transform="translate(41.898 105.727)" fill="#fff"/>
          <path id="Path_139" data-name="Path 139" d="M213.159,462.333c3.332,0,5.108,2.649,5.108,6.831a7.114,7.114,0,0,0,.137,1.533v.28H214.24a4.62,4.62,0,0,1-.137-1.253v-2.762c0-.782-.333-1.283-1-1.283s-1.081.5-1.081,1.42v13.191c0,.919.416,1.42,1.081,1.42s1-.5,1-1.283v-2.762a4.558,4.558,0,0,1,.137-1.253H218.4v.28a6.386,6.386,0,0,0-.137,1.676c0,4.182-1.776,6.831-5.108,6.831-3.611,0-5.719-2.929-5.719-10.6v-1.67c0-7.678,2.108-10.6,5.719-10.6" transform="translate(-160.126 -356.881)" fill="#fff"/>
          <path id="Path_140" data-name="Path 140" d="M268.052,463.536v3.627H264.72v5.58h2.916v3.627H264.72v5.859h3.332v3.627h-7.495V463.542h7.495Z" transform="translate(-201.127 -357.809)" fill="#fff"/>
        </g>
      </g>
    </g>
    <path id="Path_17246" data-name="Path 17246" d="M1.782,0V-71.273H25.836v11.582H15.145v17.818h8.909v11.582H15.145V0ZM28.331-71.273H41.516a20.212,20.212,0,0,1,10.112,2.539,17.991,17.991,0,0,1,7.083,7.35,24.583,24.583,0,0,1,2.584,11.76,25.785,25.785,0,0,1-1.96,10.869,27.734,27.734,0,0,1-5.613,7.84L60.4-.891V0H47.485L42.407-27.084H41.071L41.695,0H28.331ZM41.695-60.582v24.055h.445a5.49,5.49,0,0,0,4.054-1.782,7.375,7.375,0,0,0,1.737-5.345v-9.8A7.375,7.375,0,0,0,46.194-58.8a5.49,5.49,0,0,0-4.054-1.782ZM63.789-71.273H87.844v11.582H77.153v17.818h9.355v11.582H77.153v18.709H87.844V0H63.789Zm26.905,0h24.055v11.582H104.058v17.818h9.355v11.582h-9.355v18.709h10.691V0H90.695Zm26.905,0h12.473q9.711,0,15.1,6.86t5.39,22.54V-29.4q0,15.68-5.39,22.54T130.073,0H117.6Zm12.918,10.691v49.445h1.336a4.767,4.767,0,0,0,3.965-1.737,7.159,7.159,0,0,0,1.381-4.588V-54.256a7.159,7.159,0,0,0-1.381-4.588,4.767,4.767,0,0,0-3.965-1.737Zm22.54,27.618v-5.345q0-12.295,2.138-19.734t6.236-10.78a15.15,15.15,0,0,1,9.889-3.341,15.15,15.15,0,0,1,9.889,3.341q4.1,3.341,6.236,10.78t2.138,19.734v5.345q0,12.295-2.138,19.734T181.211-2.45A15.15,15.15,0,0,1,171.322.891a15.15,15.15,0,0,1-9.889-3.341q-4.1-3.341-6.236-10.78T153.058-32.964Zm14.7-23.965v42.14a5.115,5.115,0,0,0,.98,3.385,3.218,3.218,0,0,0,2.584,1.158,3.218,3.218,0,0,0,2.584-1.158,5.115,5.115,0,0,0,.98-3.385v-42.14a5.115,5.115,0,0,0-.98-3.385,3.218,3.218,0,0,0-2.584-1.158,3.218,3.218,0,0,0-2.584,1.158A5.115,5.115,0,0,0,167.758-56.929Zm24.856-14.344h14.7l5.791,38.309H214l5.791-38.309h14.7V0H222.905l.891-32.964h-.891L218.005,0H209.1l-4.9-32.964h-.891L204.2,0H192.615Zm-175.242,90h8.909l2.673,40.091h.891l1.782-40.091H42.764v.891L38.755,90H24.945L22.273,58.818h-.891L18.709,90H4.9L.891,19.618v-.891H12.027l1.782,40.091H14.7Zm31.627,0H68.6l6.682,70.382V90H62.809L61.295,73.073H56.305L54.791,90H42.318v-.891Zm7.395,42.764h4.811l-1.96-24.5h-.891ZM77.509,18.727H90.873V78.418h11.136V90h-24.5Zm26.995,0h13.364V78.418H129V90H104.5Z" transform="translate(39 254)" fill="#fff"/>
  </g>
</svg>
